<mxfile host="app.diagrams.net" modified="2021-11-18T03:17:02.368Z" agent="5.0 (Macintosh; Intel Mac OS X 10_15_7) AppleWebKit/537.36 (KHTML, like Gecko) Chrome/95.0.4638.69 Safari/537.36" etag="HOzYEaSLJX_asiK5f-d3" version="15.7.4" type="github">
  <diagram id="VzX6PqGgPY96Dyr_79Pe" name="第 1 页">
    <mxGraphModel dx="1350" dy="735" grid="1" gridSize="10" guides="1" tooltips="1" connect="1" arrows="1" fold="1" page="1" pageScale="1" pageWidth="827" pageHeight="1169" math="0" shadow="0">
      <root>
        <mxCell id="0" />
        <mxCell id="1" parent="0" />
        <mxCell id="VcJ71YD-z35t3Gw8c5sq-38" value="后台用户" style="rounded=1;whiteSpace=wrap;html=1;labelBackgroundColor=default;fontColor=#000000;" vertex="1" parent="1">
          <mxGeometry x="260" y="190" width="120" height="50" as="geometry" />
        </mxCell>
        <mxCell id="VcJ71YD-z35t3Gw8c5sq-39" value="" style="endArrow=none;dashed=1;html=1;rounded=0;fontColor=#000000;entryX=0.5;entryY=1;entryDx=0;entryDy=0;" edge="1" parent="1" target="VcJ71YD-z35t3Gw8c5sq-38">
          <mxGeometry width="50" height="50" relative="1" as="geometry">
            <mxPoint x="320" y="1100" as="sourcePoint" />
            <mxPoint x="350" y="240" as="targetPoint" />
          </mxGeometry>
        </mxCell>
        <mxCell id="VcJ71YD-z35t3Gw8c5sq-40" value="" style="rounded=0;whiteSpace=wrap;html=1;labelBackgroundColor=default;fontColor=#000000;" vertex="1" parent="1">
          <mxGeometry x="297" y="350" width="40" height="400" as="geometry" />
        </mxCell>
        <mxCell id="VcJ71YD-z35t3Gw8c5sq-41" value="&lt;p class=&quot;MsoNormal&quot; style=&quot;margin: 0pt 0pt 0.0001pt ; text-align: justify ; font-family: &amp;#34;calibri&amp;#34; ; font-size: 10.5pt&quot;&gt;&lt;span style=&quot;font-size: 10.5pt&quot;&gt;marketing-activity-service&lt;/span&gt;&lt;/p&gt;" style="rounded=1;whiteSpace=wrap;html=1;labelBackgroundColor=default;fontColor=#000000;" vertex="1" parent="1">
          <mxGeometry x="815.5" y="190" width="190" height="50" as="geometry" />
        </mxCell>
        <mxCell id="VcJ71YD-z35t3Gw8c5sq-42" value="" style="endArrow=none;dashed=1;html=1;rounded=0;fontColor=#000000;entryX=0.5;entryY=1;entryDx=0;entryDy=0;startArrow=none;" edge="1" parent="1" source="VcJ71YD-z35t3Gw8c5sq-45">
          <mxGeometry width="50" height="50" relative="1" as="geometry">
            <mxPoint x="907.5" y="1806" as="sourcePoint" />
            <mxPoint x="907.5" y="240" as="targetPoint" />
          </mxGeometry>
        </mxCell>
        <mxCell id="VcJ71YD-z35t3Gw8c5sq-43" style="edgeStyle=orthogonalEdgeStyle;rounded=0;orthogonalLoop=1;jettySize=auto;html=1;entryX=0;entryY=0.5;entryDx=0;entryDy=0;fontColor=#000000;" edge="1" parent="1">
          <mxGeometry relative="1" as="geometry">
            <mxPoint x="928" y="642" as="sourcePoint" />
            <mxPoint x="1160" y="642" as="targetPoint" />
          </mxGeometry>
        </mxCell>
        <mxCell id="VcJ71YD-z35t3Gw8c5sq-44" style="edgeStyle=orthogonalEdgeStyle;rounded=0;orthogonalLoop=1;jettySize=auto;html=1;fontColor=#000000;entryX=0;entryY=0.5;entryDx=0;entryDy=0;" edge="1" parent="1">
          <mxGeometry relative="1" as="geometry">
            <mxPoint x="1370" y="810" as="targetPoint" />
            <mxPoint x="930" y="810" as="sourcePoint" />
          </mxGeometry>
        </mxCell>
        <mxCell id="VcJ71YD-z35t3Gw8c5sq-45" value="" style="rounded=0;whiteSpace=wrap;html=1;labelBackgroundColor=default;fontColor=#000000;" vertex="1" parent="1">
          <mxGeometry x="893" y="350" width="35" height="570" as="geometry" />
        </mxCell>
        <mxCell id="VcJ71YD-z35t3Gw8c5sq-46" value="" style="endArrow=none;dashed=1;html=1;rounded=0;fontColor=#000000;entryX=0.5;entryY=1;entryDx=0;entryDy=0;" edge="1" parent="1" target="VcJ71YD-z35t3Gw8c5sq-45">
          <mxGeometry width="50" height="50" relative="1" as="geometry">
            <mxPoint x="911" y="1110" as="sourcePoint" />
            <mxPoint x="907.5" y="240" as="targetPoint" />
          </mxGeometry>
        </mxCell>
        <mxCell id="VcJ71YD-z35t3Gw8c5sq-47" value="" style="endArrow=classic;html=1;rounded=0;fontColor=#000000;entryX=0;entryY=0;entryDx=0;entryDy=0;" edge="1" parent="1" target="VcJ71YD-z35t3Gw8c5sq-52">
          <mxGeometry width="50" height="50" relative="1" as="geometry">
            <mxPoint x="340" y="350" as="sourcePoint" />
            <mxPoint x="630" y="350" as="targetPoint" />
          </mxGeometry>
        </mxCell>
        <mxCell id="VcJ71YD-z35t3Gw8c5sq-48" value="&lt;span style=&quot;background-color: rgb(248 , 249 , 250)&quot;&gt;/v1/marketing/backend/banner&lt;/span&gt;" style="text;html=1;strokeColor=none;fillColor=none;align=center;verticalAlign=middle;whiteSpace=wrap;rounded=0;labelBackgroundColor=#FFFFFF;fontColor=#000000;" vertex="1" parent="1">
          <mxGeometry x="390" y="324" width="165" height="30" as="geometry" />
        </mxCell>
        <mxCell id="VcJ71YD-z35t3Gw8c5sq-49" value="gateway" style="rounded=1;whiteSpace=wrap;html=1;labelBackgroundColor=default;fontColor=#000000;" vertex="1" parent="1">
          <mxGeometry x="577" y="190" width="120" height="50" as="geometry" />
        </mxCell>
        <mxCell id="VcJ71YD-z35t3Gw8c5sq-50" value="" style="endArrow=none;dashed=1;html=1;rounded=0;fontColor=#000000;entryX=0.5;entryY=1;entryDx=0;entryDy=0;" edge="1" parent="1">
          <mxGeometry width="50" height="50" relative="1" as="geometry">
            <mxPoint x="637" y="1110" as="sourcePoint" />
            <mxPoint x="636.5" y="240" as="targetPoint" />
          </mxGeometry>
        </mxCell>
        <mxCell id="VcJ71YD-z35t3Gw8c5sq-51" style="edgeStyle=orthogonalEdgeStyle;rounded=0;orthogonalLoop=1;jettySize=auto;html=1;exitX=1;exitY=0;exitDx=0;exitDy=0;entryX=0;entryY=0;entryDx=0;entryDy=0;fontColor=#000000;" edge="1" parent="1">
          <mxGeometry relative="1" as="geometry">
            <Array as="points">
              <mxPoint x="790" y="366" />
              <mxPoint x="790" y="366" />
            </Array>
            <mxPoint x="657" y="366" as="sourcePoint" />
            <mxPoint x="893" y="366.00000000000045" as="targetPoint" />
          </mxGeometry>
        </mxCell>
        <mxCell id="VcJ71YD-z35t3Gw8c5sq-52" value="" style="rounded=0;whiteSpace=wrap;html=1;labelBackgroundColor=default;fontColor=#000000;" vertex="1" parent="1">
          <mxGeometry x="617" y="350" width="40" height="400" as="geometry" />
        </mxCell>
        <mxCell id="VcJ71YD-z35t3Gw8c5sq-53" value="/v1/marketing/backend/banner" style="text;html=1;align=center;verticalAlign=middle;resizable=0;points=[];autosize=1;strokeColor=none;fillColor=none;fontColor=#000000;" vertex="1" parent="1">
          <mxGeometry x="670" y="346" width="180" height="20" as="geometry" />
        </mxCell>
        <mxCell id="VcJ71YD-z35t3Gw8c5sq-54" value="验证赠品/券配置" style="edgeStyle=orthogonalEdgeStyle;rounded=0;orthogonalLoop=1;jettySize=auto;html=1;exitX=1;exitY=0;exitDx=0;exitDy=0;fontColor=#000000;" edge="1" parent="1" source="VcJ71YD-z35t3Gw8c5sq-45">
          <mxGeometry relative="1" as="geometry">
            <mxPoint x="928" y="420" as="targetPoint" />
            <Array as="points">
              <mxPoint x="990" y="350" />
              <mxPoint x="990" y="420" />
              <mxPoint x="928" y="420" />
            </Array>
          </mxGeometry>
        </mxCell>
        <mxCell id="VcJ71YD-z35t3Gw8c5sq-55" value="DB" style="rounded=1;whiteSpace=wrap;html=1;labelBackgroundColor=default;fontColor=#000000;" vertex="1" parent="1">
          <mxGeometry x="1120" y="190" width="120" height="50" as="geometry" />
        </mxCell>
        <mxCell id="VcJ71YD-z35t3Gw8c5sq-56" value="" style="endArrow=none;dashed=1;html=1;rounded=0;fontColor=#000000;entryX=0.5;entryY=1;entryDx=0;entryDy=0;startArrow=none;" edge="1" parent="1" source="VcJ71YD-z35t3Gw8c5sq-67">
          <mxGeometry width="50" height="50" relative="1" as="geometry">
            <mxPoint x="1179" y="850" as="sourcePoint" />
            <mxPoint x="1179.46" y="240" as="targetPoint" />
            <Array as="points" />
          </mxGeometry>
        </mxCell>
        <mxCell id="VcJ71YD-z35t3Gw8c5sq-57" value="写入DB" style="text;html=1;align=center;verticalAlign=middle;resizable=0;points=[];autosize=1;strokeColor=none;fillColor=none;fontColor=#000000;" vertex="1" parent="1">
          <mxGeometry x="1030" y="617" width="60" height="20" as="geometry" />
        </mxCell>
        <mxCell id="VcJ71YD-z35t3Gw8c5sq-58" value="Redis" style="rounded=1;whiteSpace=wrap;html=1;labelBackgroundColor=default;fontColor=#000000;" vertex="1" parent="1">
          <mxGeometry x="1330" y="190" width="120" height="50" as="geometry" />
        </mxCell>
        <mxCell id="VcJ71YD-z35t3Gw8c5sq-59" value="" style="endArrow=none;dashed=1;html=1;rounded=0;fontColor=#000000;entryX=0.5;entryY=1;entryDx=0;entryDy=0;startArrow=none;" edge="1" parent="1" source="VcJ71YD-z35t3Gw8c5sq-60">
          <mxGeometry width="50" height="50" relative="1" as="geometry">
            <mxPoint x="1389" y="780" as="sourcePoint" />
            <mxPoint x="1389.46" y="240" as="targetPoint" />
            <Array as="points" />
          </mxGeometry>
        </mxCell>
        <mxCell id="VcJ71YD-z35t3Gw8c5sq-60" value="" style="rounded=0;whiteSpace=wrap;html=1;labelBackgroundColor=default;fontColor=#000000;" vertex="1" parent="1">
          <mxGeometry x="1370" y="730" width="40" height="170" as="geometry" />
        </mxCell>
        <mxCell id="VcJ71YD-z35t3Gw8c5sq-61" value="" style="endArrow=none;dashed=1;html=1;rounded=0;fontColor=#000000;entryX=0.5;entryY=1;entryDx=0;entryDy=0;startArrow=none;" edge="1" parent="1" target="VcJ71YD-z35t3Gw8c5sq-60">
          <mxGeometry width="50" height="50" relative="1" as="geometry">
            <mxPoint x="1390" y="1110" as="sourcePoint" />
            <mxPoint x="1389.46" y="240" as="targetPoint" />
            <Array as="points" />
          </mxGeometry>
        </mxCell>
        <mxCell id="VcJ71YD-z35t3Gw8c5sq-62" value="写入缓存" style="text;html=1;align=center;verticalAlign=middle;resizable=0;points=[];autosize=1;strokeColor=none;fillColor=none;fontColor=#000000;" vertex="1" parent="1">
          <mxGeometry x="1040" y="790" width="60" height="20" as="geometry" />
        </mxCell>
        <mxCell id="VcJ71YD-z35t3Gw8c5sq-63" value="" style="endArrow=block;dashed=1;endFill=0;endSize=12;html=1;rounded=0;fontColor=#000000;exitX=0;exitY=1;exitDx=0;exitDy=0;" edge="1" parent="1" source="VcJ71YD-z35t3Gw8c5sq-60">
          <mxGeometry width="160" relative="1" as="geometry">
            <mxPoint x="1360" y="870" as="sourcePoint" />
            <mxPoint x="930" y="900" as="targetPoint" />
          </mxGeometry>
        </mxCell>
        <mxCell id="VcJ71YD-z35t3Gw8c5sq-64" value="" style="endArrow=block;dashed=1;endFill=0;endSize=12;html=1;rounded=0;fontColor=#000000;exitX=0;exitY=1;exitDx=0;exitDy=0;" edge="1" parent="1">
          <mxGeometry width="160" relative="1" as="geometry">
            <mxPoint x="892" y="709" as="sourcePoint" />
            <mxPoint x="660" y="709" as="targetPoint" />
          </mxGeometry>
        </mxCell>
        <mxCell id="VcJ71YD-z35t3Gw8c5sq-65" value="" style="endArrow=block;dashed=1;endFill=0;endSize=12;html=1;rounded=0;fontColor=#000000;exitX=0;exitY=1;exitDx=0;exitDy=0;" edge="1" parent="1">
          <mxGeometry width="160" relative="1" as="geometry">
            <mxPoint x="1159" y="717" as="sourcePoint" />
            <mxPoint x="930" y="717" as="targetPoint" />
          </mxGeometry>
        </mxCell>
        <mxCell id="VcJ71YD-z35t3Gw8c5sq-66" value="" style="endArrow=block;dashed=1;endFill=0;endSize=12;html=1;rounded=0;fontColor=#000000;exitX=0;exitY=1;exitDx=0;exitDy=0;entryX=1.028;entryY=0.901;entryDx=0;entryDy=0;entryPerimeter=0;" edge="1" parent="1" target="VcJ71YD-z35t3Gw8c5sq-40">
          <mxGeometry width="160" relative="1" as="geometry">
            <mxPoint x="617" y="710" as="sourcePoint" />
            <mxPoint x="385" y="710" as="targetPoint" />
          </mxGeometry>
        </mxCell>
        <mxCell id="VcJ71YD-z35t3Gw8c5sq-67" value="" style="rounded=0;whiteSpace=wrap;html=1;labelBackgroundColor=default;fontColor=#000000;" vertex="1" parent="1">
          <mxGeometry x="1160" y="570" width="40" height="150" as="geometry" />
        </mxCell>
        <mxCell id="VcJ71YD-z35t3Gw8c5sq-68" value="" style="endArrow=none;dashed=1;html=1;rounded=0;fontColor=#000000;entryX=0.5;entryY=1;entryDx=0;entryDy=0;startArrow=none;" edge="1" parent="1" target="VcJ71YD-z35t3Gw8c5sq-67">
          <mxGeometry width="50" height="50" relative="1" as="geometry">
            <mxPoint x="1180" y="1110" as="sourcePoint" />
            <mxPoint x="1179.46" y="240" as="targetPoint" />
            <Array as="points">
              <mxPoint x="1179.96" y="290" />
            </Array>
          </mxGeometry>
        </mxCell>
        <mxCell id="VcJ71YD-z35t3Gw8c5sq-69" value="验证活动数据" style="edgeStyle=orthogonalEdgeStyle;rounded=0;orthogonalLoop=1;jettySize=auto;html=1;exitX=1;exitY=0;exitDx=0;exitDy=0;fontColor=#000000;" edge="1" parent="1">
          <mxGeometry relative="1" as="geometry">
            <mxPoint x="928" y="510" as="targetPoint" />
            <Array as="points">
              <mxPoint x="990" y="440" />
              <mxPoint x="990" y="510" />
              <mxPoint x="928" y="510" />
            </Array>
            <mxPoint x="928" y="439.9999999999998" as="sourcePoint" />
          </mxGeometry>
        </mxCell>
      </root>
    </mxGraphModel>
  </diagram>
</mxfile>
